# xmcd
#
# Track frame offsets: 
#        150
#        11631
#        23888
#        34238
#        45784
#        53763
#        63439
#        72977
#        85440
#        95664
#        105031
#        114950
#        127085
#
# Disc length: 1857 seconds
#
# Revision: 1
# Processed by: cddbd v1.5.2PL0 Copyright (c) Steve Scherf et al.
# Submitted via: ExactAudioCopy v0.95b4
#
DISCID=a2073f0d
DTITLE=Bill Monroe - Bill Monroe and His Bluegrass Boys
DYEAR=2005
DGENRE=Bluegrass
TTITLE0=Bluegrass Breakdown
TTITLE1=No Letter In The Mail
TTITLE2=Uncle Pen
TTITLE3=OrangeBlossom Special
TTITLE4=Footprints In The Snow
TTITLE5=I Saw The Light
TTITLE6=Shady Grove
TTITLE7=Muleskinner Blues
TTITLE8=Shenendoah Breakdown
TTITLE9=Prison Song
TTITLE10=Blue Moon Of Kentucky
TTITLE11=Cant You Here Me Calling
TTITLE12=Nine Pound Hammer
EXTD=
EXTT0=
EXTT1=
EXTT2=
EXTT3=
EXTT4=
EXTT5=
EXTT6=
EXTT7=
EXTT8=
EXTT9=
EXTT10=
EXTT11=
EXTT12=
PLAYORDER=
